<svg xmlns="http://www.w3.org/2000/svg" 
version="1.0" width="32.000000pt" height="32.000000pt" viewBox="0 0 3500 3500"><path fill="#BF8000" fillOpacity=".5" d="m1442.5 1057.2-307 307.3 307.3-307C1611.7 888.7 1750 750.4 1750 750.3c0-.2-.1-.3-.3-.3-.1 0-138.4 138.3-307.2 307.2zm665 50.8c140.8 140.8 256.2 256 256.5 256 .3 0-114.7-115.2-255.5-256S1852.3 852 1852 852c-.3 0 114.7 115.2 255.5 256zm-326 126c17.6 17.6 32.2 32 32.5 32 .3 0-13.9-14.4-31.5-32s-32.2-32-32.5-32c-.3 0 13.9 14.4 31.5 32zm-919 403.2-113 113.3 113.3-113 113.2-113 113.3 113 113.2 113-113-113.3C1027.4 1575 976.3 1524 976 1524c-.3 0-51.4 51-113.5 113.2zM2410.7 1863c62.3 62.4 113.3 113.2 113.5 113 .2-.3-50.8-51.3-113.2-113.5l-113.5-113 113.2 113.5zm282.3-56.3-56.5 56.8 56.8-56.5c52.7-52.5 57.1-57 56.4-57-.1 0-25.6 25.5-56.7 56.7zm-1423.5 194.5-23 23.3 23.3-23c12.7-12.6 23.2-23.1 23.2-23.2 0-.8-2.1 1.3-23.5 22.9zm173 441.8c168.8 168.8 307.2 307 307.5 307 .3 0-137.7-138.2-306.5-307-168.8-168.9-307.2-307-307.5-307-.3 0 137.7 138.1 306.5 307zm690.5-76.3-230.5 230.8 230.8-230.5c126.9-126.8 230.7-230.6 230.7-230.7 0-.2-.1-.3-.3-.3-.1 0-103.9 103.8-230.7 230.7zm-311-141-72.5 72.8 72.8-72.5c40-39.9 72.7-72.6 72.7-72.7 0-.2-.1-.3-.3-.3-.1 0-32.8 32.7-72.7 72.7z"/><path fill="#BF8000" fillOpacity=".4" d="M1800.5 801c28 28 51.2 51 51.5 51 .3 0-22.5-23-50.5-51-28-28.1-51.2-51-51.5-51-.3 0 22.5 22.9 50.5 51zm-245 595.2-194 194.3 194.3-194c106.8-106.7 194.2-194.1 194.2-194.2 0-.2-.1-.3-.3-.3-.1 0-87.5 87.4-194.2 194.2zm420 31.8c89.1 89.1 162.2 162 162.5 162 .3 0-72.4-72.9-161.5-162s-162.2-162-162.5-162c-.3 0 72.4 72.9 161.5 162zm547.6 96.2c.3.2 51.5 51.1 113.9 113.3l113.5 113-113-113.3c-62.1-62.2-113.4-113.2-113.9-113.2s-.7.1-.5.2zM862.8 1863 976 1976.5l113.3-113.5 113.2-113.5-113.2 113-113.3 113-113.2-113-113.3-113L862.8 1863zm692.7 241c106.7 106.7 194.2 194 194.5 194 .3 0-86.8-87.3-193.5-194s-194.2-194-194.5-194c-.3 0 86.8 87.3 193.5 194zm460.5-72.3-121.5 121.8 121.8-121.5c66.9-66.8 121.7-121.6 121.7-121.7 0-.2-.1-.3-.3-.3-.1 0-54.9 54.8-121.7 121.7zm-708-69-15.5 15.8 15.8-15.5c8.6-8.5 15.7-15.6 15.7-15.7 0-.8-1.6.8-16 15.4zm518 711-76.5 76.8 76.8-76.5c42.2-42.1 76.7-76.6 76.7-76.7 0-.2-.1-.3-.3-.3-.1 0-34.6 34.5-76.7 76.7z"/><g fill="#BF8000" strokeWidth="0"><path d="M1443 1057.5 1136.5 1364l112.8 112.7 112.7 112.8 194-194 194-194 194.3 194.3 194.2 194.2 112.8-112.8 112.7-112.7-306.8-306.8C1888.5 889 1750.3 751 1750 751c-.3 0-138.4 137.9-307 306.5z"/><path d="m1635.5 1636-114 114 114.3 114.3 114.2 114.2 114.2-114.2 114.3-114.3-114-114c-62.7-62.7-114.2-114-114.5-114-.3 0-51.8 51.3-114.5 114zm-772.5 1.5L750.5 1750l112.8 112.8L976 1975.5l112.7-112.7 112.8-112.8-112.5-112.5c-61.9-61.9-112.7-112.5-113-112.5-.3 0-51.1 50.6-113 112.5zm1548.2.8L2299 1750.5l112.5 112.5 112.5 112.5 112.5-112.5 112.5-112.5-112.2-112.2C2575 1576.5 2524.3 1526 2524 1526c-.3 0-51 50.5-112.8 112.3z"/><path d="M1944.2 2104.3 1750 2298.5l-193.9-193.9-194-194-44.8 44.2c-24.6 24.2-75.5 74.8-113 112.4l-68.3 68.3 307 307 307 307 307-307 307-307-112.8-112.8-112.7-112.7-194.3 194.3z"/></g><path fill="#BF8000" fillOpacity=".1" d="M1844.5 1615c51.7 51.7 94.2 94 94.5 94 .3 0-41.8-42.3-93.5-94s-94.2-94-94.5-94c-.3 0 41.8 42.3 93.5 94zm-183-6.8-46 46.3 46.3-46c42.9-42.7 46.6-46.5 45.9-46.5-.1 0-20.9 20.8-46.2 46.2zm278.5 102.1c0 .1 8.9 9 19.8 19.7l19.7 19.5-19.5-19.8c-18.1-18.3-20-20.2-20-19.4zm-404.5 23.7c-8.2 8.2-14.7 15-14.5 15 .3 0 7.3-6.8 15.5-15 8.2-8.3 14.7-15 14.5-15-.3 0-7.3 6.7-15.5 15zm329 131.2-114 114.3 114.3-114c62.8-62.7 114.2-114.1 114.2-114.2 0-.2-.1-.3-.3-.3-.1 0-51.5 51.4-114.2 114.2z"/><path fill="#BF8000" fillOpacity=".9" d="M1248.5 1477c62.1 62.1 113.2 113 113.5 113 .3 0-50.4-50.9-112.5-113-62.1-62.2-113.2-113-113.5-113-.3 0 50.4 50.8 112.5 113zM2411 1637.7l-112.5 112.8 112.8-112.5 112.7-112.5 112.8 112.5 112.7 112.5-112.5-112.8c-61.9-62-112.7-112.7-113-112.7-.3 0-51.1 50.7-113 112.7zm-1072 295-22.5 22.8 22.8-22.5c12.5-12.4 22.7-22.6 22.7-22.7 0-.8-2.1 1.3-23 22.4z"/><path fill="#BF8000" fillOpacity=".3" d="M1264.5 1494c52.8 52.8 96.2 96 96.5 96 .3 0-42.7-43.2-95.5-96s-96.2-96-96.5-96c-.3 0 42.7 43.2 95.5 96zm1225.5 63.7-32.5 32.8 32.8-32.5c18-17.9 32.7-32.6 32.7-32.7 0-.7-2.8 2-33 32.4zm-112.5 112.5-79 79.3 79.3-79c43.5-43.4 79.2-79.1 79.2-79.2 0-.2-.1-.3-.3-.3-.1 0-35.8 35.7-79.2 79.2zM1342 1928.7l-18.5 18.8 18.8-18.5c10.3-10.2 18.7-18.6 18.7-18.7 0-.8-1.8 1-19 18.4z"/><path fill="#BF8000" fillOpacity=".2" d="M1152 1381.5c9.1 9.1 16.7 16.5 17 16.5.3 0-6.9-7.4-16-16.5s-16.7-16.5-17-16.5c-.3 0 6.9 7.4 16 16.5z"/><path fill="#BF8000" fillOpacity=".6" d="m2251 1477.7-112.5 112.8 112.8-112.5c62-61.9 112.7-112.6 112.7-112.7 0-.2-.1-.3-.3-.3-.1 0-50.8 50.7-112.7 112.7zm362.5 408.5-23 23.3 23.3-23c21.6-21.4 23.7-23.5 22.9-23.5-.1 0-10.6 10.5-23.2 23.2zm-458 40.8c9.3 9.3 17.2 17 17.5 17 .3 0-7.2-7.7-16.5-17-9.3-9.4-17.2-17-17.5-17-.3 0 7.2 7.6 16.5 17zm401.5 15.7-32.5 32.8 32.8-32.5c18-17.9 32.7-32.6 32.7-32.7 0-.7-2.8 2-33 32.4zm-1331 102-20.5 20.8 20.8-20.5c19.2-19 21.2-21 20.4-21-.1 0-9.4 9.3-20.7 20.7z"/><path fill="#BF8000" fillOpacity=".8" d="M1635 1635.5 1520.5 1750l114.8 114.8 114.7 114.7 114.7-114.7 114.8-114.8-114.5-114.5c-63-63-114.7-114.5-115-114.5-.3 0-52 51.5-115 114.5zm229.5.5 114 114-114.3 114.3-114.2 114.2-114.2-114.2-114.3-114.3 114-114c62.7-62.7 114.2-114 114.5-114 .3 0 51.8 51.3 114.5 114zm466 466c18.1 18.1 33.2 33 33.5 33 .3 0-14.4-14.9-32.5-33-18.1-18.2-33.2-33-33.5-33-.3 0 14.4 14.8 32.5 33zm-1186 24.2-9 9.3 9.3-9c5-4.9 9.2-9.1 9.2-9.2 0-.8-1.2.4-9.5 8.9z"/><path fill="#BF8033" fillOpacity=".1" d="m1588 1681.7-27.5 27.8 27.8-27.5c15.2-15.1 27.7-27.6 27.7-27.7 0-.8-2.5 1.7-28 27.4zm-33 32.8c-2.4 2.5-4.2 4.5-3.9 4.5.3 0 2.5-2 4.9-4.5 2.4-2.5 4.2-4.5 3.9-4.5-.3 0-2.5 2-4.9 4.5z"/><path fill="#BF8000" fillOpacity=".7" d="M2235 2006.5c34.4 34.4 62.7 62.5 63 62.5.3 0-27.6-28.1-62-62.5s-62.7-62.5-63-62.5c-.3 0 27.6 28.1 62 62.5zm-1055.5 84.7-26 26.3 26.3-26c24.3-24.1 26.7-26.5 25.9-26.5-.1 0-11.9 11.8-26.2 26.2z"/></svg>
 